HIERARCHY
ROOT hip
{
	OFFSET 0 -2.1274 0
	CHANNELS 6 Xposition Yposition Zposition Zrotation Yrotation Xrotation 	
	JOINT abdomen
	{
		OFFSET 0 20.6881 -0.7315
		CHANNELS 3 Zrotation Xrotation Yrotation 		
		JOINT chest
		{
			OFFSET 0 11.7043 -0.4877
			CHANNELS 3 Zrotation Xrotation Yrotation 			
			JOINT neck
			{
				OFFSET 0 22.1894 -2.1946
				CHANNELS 3 Zrotation Xrotation Yrotation 				
				JOINT head
				{
					OFFSET -0.2438 7.0713 1.2192
					CHANNELS 3 Zrotation Xrotation Yrotation 					
					JOINT lefteye
					{
						OFFSET 4.1453 8.0467 8.0467
						CHANNELS 3 Zrotation Xrotation Yrotation 						
						End Site
						{
							OFFSET 1 0 0
						}
					}
					JOINT righteye
					{
						OFFSET -3.6576 8.0467 8.0467
						CHANNELS 3 Zrotation Xrotation Yrotation 						
						End Site
						{
							OFFSET 1 0 0
						}
					}
				}
			}
			JOINT rcollar
			{
				OFFSET -2.6822 19.2634 -4.8768
				CHANNELS 3 Zrotation Xrotation Yrotation 				
				JOINT rshldr
				{
					OFFSET -8.7782 -1.9507 1.463
					CHANNELS 3 Zrotation Xrotation Yrotation 					
					JOINT rforearm
					{
						OFFSET -28.1742 -1.7115 0.4877
						CHANNELS 3 Zrotation Xrotation Yrotation 						
						JOINT rhand
						{
							OFFSET -22.5879 0.7732 7.0714
							CHANNELS 3 Zrotation Xrotation Yrotation 							
							JOINT rthumb1
							{
								OFFSET -1.2192 -0.4879 3.4138
								CHANNELS 3 Zrotation Xrotation Yrotation 								
								JOINT rthumb2
								{
									OFFSET -3.3703 -0.5245 3.4138
									CHANNELS 3 Zrotation Xrotation Yrotation 									
									End Site
									{
										OFFSET -1.7827 -1.1821 1.4305
									}
								}
							}
							JOINT rindex1
							{
								OFFSET -7.7595 0.9383 5.6083
								CHANNELS 3 Zrotation Xrotation Yrotation 								
								JOINT rindex2
								{
									OFFSET -2.5406 -0.8842 1.5654
									CHANNELS 3 Zrotation Xrotation Yrotation 									
									End Site
									{
										OFFSET -1.6252 -0.2348 1.165
									}
								}
							}
							JOINT rmid1
							{
								OFFSET -8.2471 1.1821 3.4138
								CHANNELS 3 Zrotation Xrotation Yrotation 								
								JOINT rmid2
								{
									OFFSET -3.1016 -0.5901 1.0647
									CHANNELS 3 Zrotation Xrotation Yrotation 									
									End Site
									{
										OFFSET -2.4855 -0.3289 0.8374
									}
								}
							}
							JOINT rring1
							{
								OFFSET -8.8282 0.5467 1.5168
								CHANNELS 3 Zrotation Xrotation Yrotation 								
								JOINT rring2
								{
									OFFSET -2.6093 -0.8198 -0.0198
									CHANNELS 3 Zrotation Xrotation Yrotation 									
									End Site
									{
										OFFSET -2.3384 -0.2941 0.1681
									}
								}
							}
							JOINT rpinky1
							{
								OFFSET -8.272 -0.0478 -0.4584
								CHANNELS 3 Zrotation Xrotation Yrotation 								
								JOINT rpinky2
								{
									OFFSET -1.8273 -0.6474 -0.701
									CHANNELS 3 Zrotation Xrotation Yrotation 									
									End Site
									{
										OFFSET -1.6923 -0.5177 -0.6072
									}
								}
							}
						}
					}
				}
			}
			JOINT lcollar
			{
				OFFSET 2.6822 19.2634 -4.8768
				CHANNELS 3 Zrotation Xrotation Yrotation 				
				JOINT lshldr
				{
					OFFSET 8.7782 -1.9507 1.463
					CHANNELS 3 Zrotation Xrotation Yrotation 					
					JOINT lforearm
					{
						OFFSET 28.1742 -1.7115 0.4877
						CHANNELS 3 Zrotation Xrotation Yrotation 						
						JOINT lhand
						{
							OFFSET 22.5879 0.7732 7.0714
							CHANNELS 3 Zrotation Xrotation Yrotation 							
							JOINT lthumb1
							{
								OFFSET 1.2192 -0.4879 3.4138
								CHANNELS 3 Zrotation Xrotation Yrotation 								
								JOINT lthumb2
								{
									OFFSET 3.3703 -0.5245 3.4138
									CHANNELS 3 Zrotation Xrotation Yrotation 									
									End Site
									{
										OFFSET 1.7827 -1.1821 1.4305
									}
								}
							}
							JOINT lindex1
							{
								OFFSET 7.7595 0.9383 5.6083
								CHANNELS 3 Zrotation Xrotation Yrotation 								
								JOINT lindex2
								{
									OFFSET 2.5406 -0.8842 1.5654
									CHANNELS 3 Zrotation Xrotation Yrotation 									
									End Site
									{
										OFFSET 1.6252 -0.2348 1.165
									}
								}
							}
							JOINT lmid1
							{
								OFFSET 8.2471 1.1821 3.4138
								CHANNELS 3 Zrotation Xrotation Yrotation 								
								JOINT lmid2
								{
									OFFSET 3.1016 -0.5901 1.0647
									CHANNELS 3 Zrotation Xrotation Yrotation 									
									End Site
									{
										OFFSET 2.4855 -0.3289 0.8374
									}
								}
							}
							JOINT lring1
							{
								OFFSET 8.8282 0.5467 1.5168
								CHANNELS 3 Zrotation Xrotation Yrotation 								
								JOINT lring2
								{
									OFFSET 2.6093 -0.8198 -0.0198
									CHANNELS 3 Zrotation Xrotation Yrotation 									
									End Site
									{
										OFFSET 2.3384 -0.2941 0.1681
									}
								}
							}
							JOINT lpinky1
							{
								OFFSET 8.272 -0.0478 -0.4584
								CHANNELS 3 Zrotation Xrotation Yrotation 								
								JOINT lpinky2
								{
									OFFSET 1.8273 -0.6474 -0.701
									CHANNELS 3 Zrotation Xrotation Yrotation 									
									End Site
									{
										OFFSET 1.6923 -0.5177 -0.6072
									}
								}
							}
						}
					}
				}
			}
		}
	}
	JOINT rbuttock
	{
		OFFSET -8.7782 4.3508 1.2192
		CHANNELS 3 Zrotation Xrotation Yrotation 		
		JOINT rthigh
		{
			OFFSET 0 -1.7069 -2.1946
			CHANNELS 3 Zrotation Xrotation Yrotation 			
			JOINT rshin
			{
				OFFSET 0 -36.8199 0.7315
				CHANNELS 3 Zrotation Xrotation Yrotation 				
				JOINT rfoot
				{
					OFFSET 0.7315 -45.1104 -5.1206
					CHANNELS 3 Zrotation Xrotation Yrotation 					
					End Site
					{
						OFFSET -1.1221 -3.6996 12.103
					}
				}
			}
		}
	}
	JOINT lbuttock
	{
		OFFSET 8.7782 4.3508 1.2192
		CHANNELS 3 Zrotation Xrotation Yrotation 		
		JOINT lthigh
		{
			OFFSET 0 -1.7069 -2.1946
			CHANNELS 3 Zrotation Xrotation Yrotation 			
			JOINT lshin
			{
				OFFSET 0 -36.8199 0.7315
				CHANNELS 3 Zrotation Xrotation Yrotation 				
				JOINT lfoot
				{
					OFFSET -0.7315 -45.1104 -5.1206
					CHANNELS 3 Zrotation Xrotation Yrotation 					
					End Site
					{
						OFFSET 1.1221 -3.6996 12.103
					}
				}
			}
		}
	}
}
MOTION
Frames: 11
Frame Time: 0.008333
89.4173 85.3029 -41.7785 0 0 0 1.00446 -0.00484 0.027869 0.277299 -0.005379 0.048043 0 -0 -0 0 0 -0 -0 0 0 -0 0 0 0 0 0 0 0 -0 0 -0 -0 0 0 -0 0 0 -0 0 0 -0 0 0 -0 7.73091 5.47488 0.417314 0 0 -0 2.90554 0.965183 0.102902 0 0 -0 10.2786 0.731801 0.025912 0 0 -0 2.22167 -0.733487 -0.20892 0 0 -0 0 0 -0 0 0 -0 0 -0 -0 0 0 -0 0 0 -0 0 0 -0 -7.73091 5.47488 -0.417314 0 0 -0 -2.90554 0.965183 -0.102902 0 0 -0 -10.2786 0.731801 -0.025912 0 0 -0 -2.22167 -0.733487 0.20892 0 0 0 1.24484 -5.50652 -0.110067 0.0003 4.41967 0.026948 -0.491959 1.08602 0.07804 0 0 0 0.290209 -1.91903 0.012242 0.009108 -2.07858 0.075133 0.470799 3.99667 -0.134184 
87.4573 82.9976 -49.8309 -5.3491 -3.5725 9.9077 1.95777 0.952813 1.3498 -0.463183 -0.814766 0.411634 2.84746 -0.320262 3.92051 -5.39091 5.60092 7.82766 -0 0 0 -0 0 0 -0 -0 -0 22.4538 7.98595 -1.05684 -5.16832 -2.57424 7.81212 0.002072 -1.01338 -0.142342 0 -0 0 0 -0 0 0 -0 0 7.73091 5.47488 0.417314 0 -0 0 2.90554 0.965183 0.102902 0 -0 0 10.2786 0.731801 0.025912 0 -0 0 2.22167 -0.733487 -0.20892 -0 -0 -0 -21.1544 -1.64059 -2.13618 4.12619 -1.85655 -6.46438 -0.000919 -0.673342 0.094609 0 0 -0 0 0 -0 0 0 -0 -7.73091 5.47488 -0.417314 0 0 -0 -2.90554 0.965183 -0.102902 0 0 -0 -10.2786 0.731801 -0.025912 0 0 -0 -2.22167 -0.733487 0.20892 -0 0 -0 2.99471 1.06 -0.34547 0.077258 8.42228 0.272834 -1.0001 1.85201 1.40085 0 0 0 0.75077 -12.6813 0.660113 0.004572 9.09631 -0.08043 0.686752 0.144299 -0.537607 
87.5149 83.0759 -49.5964 -5.1539 -3.7875 10.0314 2.94518 1.96771 2.77233 -1.24721 -1.6596 0.802749 5.89942 -0.685959 8.059 -12.7411 11.1789 16.3245 -0 0 0 -0 0 0 -0 -0 -0 46.5228 16.4106 -2.22955 -9.87904 -5.13847 16.1252 -0.001237 -2.09452 -0.294353 0 -0 0 0 -0 0 0 -0 0 7.73091 5.47488 0.417314 0 -0 0 2.90554 0.965183 0.102902 0 -0 0 10.2786 0.731801 0.025912 0 -0 0 2.22167 -0.733487 -0.20892 -0 -0 -0 -43.6556 -3.36595 -4.4191 8.03541 -3.74015 -13.3192 0.000527 -1.38119 0.19411 0 0 -0 0 0 -0 0 0 -0 -7.73091 5.47488 -0.417314 0 0 -0 -2.90554 0.965183 -0.102902 0 0 -0 -10.2786 0.731801 -0.025912 0 0 -0 -2.22167 -0.733487 0.20892 -0 0 -0 4.9127 8.03941 -0.583746 0.120764 12.5048 0.540287 -1.57971 2.67716 2.83276 0 0 0 1.54261 -24.0956 1.43303 0.06984 20.9418 -0.259396 0.851892 -3.92999 -0.984873 
87.5168 83.2925 -49.0933 -5.1359 -4.9409 9.8798 3.7318 2.86194 3.99809 -1.91331 -2.43312 1.13972 8.67287 -0.942817 11.7629 -20.7641 15.5316 24.3119 -0 0 0 -0 0 0 -0 -0 -0 68.3153 23.9237 -3.43523 -13.4506 -7.14967 23.6071 -0.008907 -3.04007 -0.427561 0 -0 0 0 -0 0 0 -0 0 7.73091 5.47488 0.417314 0 -0 0 2.90554 0.965183 0.102902 0 -0 0 10.2786 0.731801 0.025912 0 -0 0 2.22167 -0.733487 -0.20892 -0 -0 -0 -63.8305 -4.89437 -6.42945 11.144 -5.28664 -19.469 0.003917 -2.02 0.283983 0 0 -0 0 0 -0 0 0 -0 -7.73091 5.47488 -0.417314 0 0 -0 -2.90554 0.965183 -0.102902 0 0 -0 -10.2786 0.731801 -0.025912 0 0 -0 -2.22167 -0.733487 0.20892 -0 0 -0 6.66081 14.1916 -0.842839 0.12403 16.4263 0.788109 -2.12256 3.37719 4.05136 0 0 0 2.53427 -34.1866 2.30621 0.200322 31.4453 -0.455287 0.954788 -7.55835 -1.35689 
87.5144 83.4594 -48.7759 -5.1121 -4.5886 10.0536 4.11471 3.46093 4.72742 -2.30666 -3.02878 1.34048 10.6377 -0.948728 14.3786 -27.2281 18.0247 30.2276 -0 0 0 -0 0 0 -0 -0 -0 83.7452 29.1876 -4.48372 -15.607 -8.32721 28.8474 -0.016338 -3.64671 -0.513212 0 -0 -0 0 -0 -0 0 -0 -0 7.73091 5.47488 0.417314 0 -0 -0 2.90554 0.965183 0.102902 0 -0 -0 10.2786 0.731801 0.025912 0 -0 -0 2.22167 -0.733487 -0.20892 -0 -0 -0 -77.9259 -5.95758 -7.73813 13.1121 -6.25973 -23.784 0.007587 -2.48625 0.349641 0 0 -0 0 0 -0 0 0 -0 -7.73091 5.47488 -0.417314 0 0 -0 -2.90554 0.965183 -0.102902 0 0 -0 -10.2786 0.731801 -0.025912 0 0 -0 -2.22167 -0.733487 0.20892 -0 0 -0 7.88242 18.2768 -1.12947 0.096748 19.9462 0.969822 -2.49102 3.77131 4.73194 0 0 0 3.37994 -40.9867 3.10742 0.342891 38.5948 -0.630624 1.0301 -10.0743 -1.52515 
87.5254 83.5931 -48.4214 -5.0402 -4.1735 10.2358 3.95496 3.63559 4.74248 -2.30301 -3.39159 1.3454 11.4115 -0.593657 15.4727 -30.1383 18.7916 32.8144 -0 0 0 -0 0 0 -0 -0 -0 89.9028 31.3617 -5.15381 -16.3657 -8.71371 30.865 -0.018664 -3.78084 -0.532189 0 -0 -0 0 -0 -0 0 -0 -0 7.73091 5.47488 0.417314 0 -0 -0 2.90554 0.965183 0.102902 0 -0 -0 10.2786 0.731801 0.025912 0 -0 -0 2.22167 -0.733487 -0.20892 -0 -0 -0 -83.4072 -6.37176 -7.99876 13.8582 -6.62603 -25.5173 0.0099 -2.74829 0.386566 0 0 -0 0 0 -0 0 0 -0 -7.73091 5.47488 -0.417314 0 0 -0 -2.90554 0.965183 -0.102902 0 0 -0 -10.2786 0.731801 -0.025912 0 0 -0 -2.22167 -0.733487 0.20892 -0 0 -0 8.27954 19.4853 -1.39528 0.062572 22.8714 1.04713 -2.60358 3.7484 4.7221 0 0 0 3.57826 -43.2023 3.49821 0.406915 41.0607 -0.7154 1.13178 -11.0426 -1.35861 
87.5601 83.7399 -48.0273 -4.8369 -4.0621 10.2162 3.41452 3.50841 4.24754 -2.01984 -3.5874 1.21044 11.3347 0.016919 15.4811 -30.2102 18.5786 32.9213 -0 0 0 -0 0 0 -0 -0 -0 89.3219 31.3361 -5.47903 -16.2467 -8.63944 30.5607 -0.016583 -3.57736 -0.503461 0 -0 -0 0 -0 -0 0 -0 -0 7.73091 5.47488 0.417314 0 -0 -0 2.90554 0.965183 0.102902 0 -0 -0 10.2786 0.731801 0.025912 0 -0 -0 2.22167 -0.733487 -0.20892 -0 -0 -0 -82.7108 -6.32739 -7.50953 13.8103 -6.61166 -25.3944 0.010739 -2.86268 0.402685 0 0 -0 0 0 -0 0 0 -0 -7.73091 5.47488 -0.417314 0 0 -0 -2.90554 0.965183 -0.102902 0 0 -0 -10.2786 0.731801 -0.025912 0 0 -0 -2.22167 -0.733487 0.20892 -0 0 -0 8.06115 18.6389 -1.63684 0.035737 25.3735 1.0456 -2.5321 3.42732 4.21598 0 0 0 3.1805 -42.149 3.49008 0.384977 40.1807 -0.712776 1.25794 -10.9048 -0.952272 
87.6144 83.985 -47.5053 -4.5508 -4.266 9.9093 2.74903 3.28409 3.57495 -1.6657 -3.69096 1.02679 10.9505 0.695454 15.053 -29.132 17.9419 32.0031 -0 0 0 -0 0 0 0 0 -0 86.0262 30.3769 -5.59498 -15.7702 -8.37528 29.3208 -0.013125 -3.23582 -0.455262 -0 -0 -0 -0 -0 -0 -0 -0 -0 7.73091 5.47488 0.417314 -0 -0 -0 2.90554 0.965183 0.102902 -0 -0 -0 10.2786 0.731801 0.025912 -0 -0 -0 2.22167 -0.733487 -0.20892 0 0 -0 -79.5248 -6.12455 -6.80367 13.4224 -6.42818 -24.4805 0.010389 -2.85823 0.402048 0 0 -0 0 0 -0 0 0 -0 -7.73091 5.47488 -0.417314 0 0 -0 -2.90554 0.965183 -0.102902 0 0 -0 -10.2786 0.731801 -0.025912 0 0 -0 -2.22167 -0.733487 0.20892 -0 0 -0 7.62878 16.9438 -1.92366 0.01339 27.7597 1.01305 -2.36384 2.97379 3.40773 0 0 0 2.57826 -39.7766 3.34355 0.32955 37.9447 -0.675125 1.37021 -10.311 -0.510906 
87.6848 84.2474 -47.008 -4.3365 -4.3 9.7747 2.22245 3.16855 3.05644 -1.44832 -3.77708 0.885724 10.7778 1.24779 14.8349 -28.6152 17.4051 31.5173 -0 0 0 -0 0 0 0 0 -0 84.087 29.7455 -5.66411 -15.4554 -8.1909 28.5312 -0.010727 -2.95573 -0.415773 -0 0 -0 -0 0 -0 -0 0 -0 7.73091 5.47488 0.417314 -0 0 -0 2.90554 0.965183 0.102902 -0 0 -0 10.2786 0.731801 0.025912 -0 0 -0 2.22167 -0.733487 -0.20892 0 0 -0 -77.5292 -6.06603 -6.41356 13.1412 -6.28194 -23.8417 0.009377 -2.76372 0.38872 0 0 0 0 0 0 0 0 0 -7.73091 5.47488 -0.417314 0 0 0 -2.90554 0.965183 -0.102902 0 0 0 -10.2786 0.731801 -0.025912 0 0 0 -2.22167 -0.733487 0.20892 -0 0 -0 7.39955 15.6058 -2.32958 -0.017419 30.3371 1.0022 -2.17848 2.55456 2.49067 0 0 0 2.15754 -38.0348 3.31071 0.293322 36.342 -0.654278 1.44862 -9.91239 -0.23587 
87.7123 84.547 -46.5114 -4.3091 -4.0508 9.9764 1.90676 3.20046 2.77191 -1.45083 -3.82259 0.809936 10.9332 1.65009 14.9266 -28.9286 16.9849 31.6484 -0 0 0 -0 0 0 0 0 -0 84.2045 29.5953 -5.65354 -15.3906 -8.13329 28.396 -0.009071 -2.72702 -0.383548 -0 0 -0 -0 0 -0 -0 0 -0 7.73091 5.47488 0.417314 -0 0 -0 2.90554 0.965183 0.102902 -0 0 -0 10.2786 0.731801 0.025912 -0 0 -0 2.22167 -0.733487 -0.20892 0 0 -0 -77.2963 -6.23735 -6.49845 13.0288 -6.19785 -23.6178 0.007856 -2.55554 0.359389 0 0 0 0 0 0 0 0 0 -7.73091 5.47488 -0.417314 0 0 0 -2.90554 0.965183 -0.102902 0 0 0 -10.2786 0.731801 -0.025912 0 0 0 -2.22167 -0.733487 0.20892 -0 0 -0 7.48938 14.8283 -2.89695 -0.064364 33.1744 1.02532 -1.94434 2.2498 1.29851 0 0 0 1.97853 -37.2321 3.41526 0.281108 35.6834 -0.659668 1.49673 -9.82727 -0.162996 
87.7381 84.8007 -46.1367 -4.2432 -4.069 10.179 1.66163 3.27556 2.54723 -1.55251 -3.80198 0.751332 11.1486 1.99697 15.0069 -29.2318 16.4356 31.6929 -0 0 0 -0 0 0 0 0 -0 84.3399 29.3146 -5.50481 -15.3116 -8.06328 28.2317 -0.00738 -2.46437 -0.346558 0 0 -0 0 0 -0 0 0 -0 7.73091 5.47488 0.417314 0 0 -0 2.90554 0.965183 0.102902 0 0 -0 10.2786 0.731801 0.025912 0 0 -0 2.22167 -0.733487 -0.20892 0 0 -0 -77.0023 -6.47517 -6.76903 12.862 -6.07332 -23.2887 0.005954 -2.22876 0.31338 0 0 0 0 0 0 0 0 0 -7.73091 5.47488 -0.417314 0 0 0 -2.90554 0.965183 -0.102902 0 0 0 -10.2786 0.731801 -0.025912 0 0 0 -2.22167 -0.733487 0.20892 -0 0 -0 7.66373 14.007 -3.57687 -0.121114 36.1121 1.05651 -1.64434 1.95772 -0.199052 0 0 0 1.85139 -36.3988 3.53953 0.268867 34.9811 -0.665939 1.52234 -9.72701 -0.190836 
